:SAMPLES-PER-SECOND 30
:FULLY-SPECIFIED
:DEGREES
278
root  5.72012 36.8359 7.6885 -164.103 -25.4913 179.042
RightUpLeg  -50.4005 11.7214 -5.85463
RightLeg  35.0688 17.4941 12.5605
RightFoot  1.89239 -1.01976 8.86117
RightToes  5.82063e-011 0 -3.6325e-017
Spine  45.6327 -2.29888 2.95601
Spine1  -18.1535 0.581476 -5.94845
HEad  -47.7273 -15.3559 11.6439
LeftShoulder1  -0.0974118 2.27192 18.7071
LeftArm  114.77 -79.3465 163.176
LeftForeArm  144.35 -77.8169 -129.899
LeftHand  -0.931551 1.66531 28.7314
RightShoulder  0.197344 -4.86343 -25.5137
RightArm  -125.102 71.0087 -66.8005
RightForeArm  2.35202 -6.16995 2.05047
RightHand  0.236589 -7.27935 -15.6718
LeftUpLeg  -45.6676 2.70263 -10.71
LeftLeg  45.7636 21.4072 22.2308
LeftFoot  -8.47989 0.210371 -6.41865
LeftToes  -1.1369e-010 2.7689e-011 -1.90827e-011
279
root  5.67525 36.1753 7.77094 -164.125 -25.2163 178.153
RightUpLeg  -52.8673 11.2232 -5.83512
RightLeg  40.3208 14.1492 12.2852
RightFoot  0.197989 -0.505394 4.9554
RightToes  5.82063e-011 0 -3.6325e-017
Spine  46.7924 -2.18126 2.14843
Spine1  -19.9703 0.18446 -4.42836
HEad  -47.8931 -15.4631 10.8021
LeftShoulder1  -0.185234 1.01625 18.1806
LeftArm  115.551 -80.4049 162.052
LeftForeArm  144.702 -77.6864 -130.546
LeftHand  -1.03662 1.15283 28.1085
RightShoulder  0.441337 -6.11178 -28.4173
RightArm  -121.732 64.7213 -68.9517
RightForeArm  -3.76359 -5.89855 0.91168
RightHand  0.216194 -7.11746 -15.7425
LeftUpLeg  -47.6615 2.14231 -11.06
LeftLeg  50.1645 17.3861 21.3997
LeftFoot  -10.1751 0.137335 -7.70526
LeftToes  -1.1369e-010 2.7689e-011 -1.90827e-011
280
root  5.64935 35.1009 7.7888 -165.513 -25.5159 177.031
RightUpLeg  -55.27 11.1723 -6.33694
RightLeg  48.2274 10.9844 12.595
RightFoot  -3.22266 -0.198489 2.55782
RightToes  5.82063e-011 0 -3.6325e-017
Spine  48.5002 -2.1743 1.43168
Spine1  -20.7794 -0.314146 -2.58429
HEad  -47.7342 -16.1735 9.3678
LeftShoulder1  -0.268596 -0.39152 17.5419
LeftArm  114.811 -81.9824 162.889
LeftForeArm  144.952 -77.514 -131.325
LeftHand  -1.01611 1.22061 28.0237
RightShoulder  0.718944 -7.25749 -30.9635
RightArm  -120.525 60.6518 -70.4733
RightForeArm  -8.84884 -5.59096 -0.374382
RightHand  0.209627 -7.08206 -15.6299
LeftUpLeg  -48.8879 1.8468 -11.7558
LeftLeg  56.265 12.9664 20.3959
LeftFoot  -13.7399 -0.0926617 -8.42416
LeftToes  -1.1369e-010 2.7689e-011 -1.90827e-011
281
root  5.59727 33.7483 7.73116 -168.125 -26.1834 176.505
RightUpLeg  -57.1343 11.2877 -6.5135
RightLeg  57.0293 8.59172 13.5966
RightFoot  -7.42343 -0.136071 2.61174
RightToes  5.82063e-011 0 -3.6325e-017
Spine  50.4053 -2.45138 1.2922
Spine1  -20.2646 -0.809679 -0.943177
HEad  -47.7803 -16.3848 8.05246
LeftShoulder1  -0.298344 -1.34293 16.6994
LeftArm  109.738 -83.2649 168.518
LeftForeArm  144.661 -77.415 -131.655
LeftHand  -0.874503 1.93918 29.0959
RightShoulder  0.975338 -8.36576 -32.0383
RightArm  -124.646 59.1238 -73.646
RightForeArm  -9.95802 -5.36008 -1.56927
RightHand  0.202797 -7.04461 -15.5095
LeftUpLeg  -49.231 2.12229 -12.4653
LeftLeg  62.9698 9.63305 20.33
LeftFoot  -18.9186 -0.412495 -7.9933
LeftToes  -1.1369e-010 2.7689e-011 -1.90827e-011
282
root  5.53146 32.4348 7.65753 -171.168 -26.6792 177.065
RightUpLeg  -58.2452 10.9422 -5.41511
RightLeg  64.4578 6.99662 15.0816
RightFoot  -10.9575 -0.0866658 3.05529
RightToes  5.82063e-011 0 -3.6325e-017
Spine  51.7635 -2.74545 1.71054
Spine1  -18.5081 -1.07684 0.307515
HEad  -48.7088 -15.8004 7.63827
LeftShoulder1  -0.287525 -2.10809 15.5321
LeftArm  95.0266 -83.7279 -175.657
LeftForeArm  143.797 -77.5442 -130.913
LeftHand  -0.819262 2.27036 30.0994
RightShoulder  0.947975 -8.30489 -31.66
RightArm  -130.547 60.4162 -76.7901
RightForeArm  -7.42091 -5.39573 -1.63416
RightHand  0.179911 -6.87911 -15.4339
LeftUpLeg  -49.2849 2.4905 -12.5238
LeftLeg  69.0316 7.63854 21.908
LeftFoot  -24.0149 -0.638917 -7.03646
LeftToes  -1.1369e-010 2.7689e-011 -1.90827e-011
283
root  5.51417 31.567 7.65067 -173.765 -26.5344 178.324
RightUpLeg  -58.4541 10.0455 -3.34843
RightLeg  68.6914 6.26807 16.6241
RightFoot  -12.7156 -0.0516016 2.82169
RightToes  5.82063e-011 0 -3.6325e-017
Spine  52.2937 -2.66424 2.39417
Spine1  -16.4558 -0.871233 0.695753
HEad  -50.4499 -15.4685 8.33111
LeftShoulder1  -0.273712 -3.24248 14.319
LeftArm  75.5466 -82.8844 -154.483
LeftForeArm  143.183 -77.8137 -129.612
LeftHand  -0.959863 1.65122 29.4941
RightShoulder  0.533012 -6.36724 -30.1514
RightArm  -134.469 65.2681 -76.9859
RightForeArm  -2.42179 -5.7085 -0.292156
RightHand  0.155011 -6.66236 -15.727
LeftUpLeg  -49.3514 2.44479 -11.7144
LeftLeg  73.1515 6.57188 24.2168
LeftFoot  -26.8947 -0.734634 -6.54384
LeftToes  -1.1369e-010 2.7689e-011 -1.90827e-011
284
root  5.59465 31.4137 7.71137 -175.329 -25.9376 179.489
RightUpLeg  -57.6501 9.00139 -1.41909
RightLeg  69.0754 6.6796 18.0364
RightFoot  -12.6231 -0.0493587 3.30082
RightToes  5.82063e-011 0 -3.6325e-017
Spine  52.3219 -2.44586 3.24107
Spine1  -14.6222 -0.281569 -0.713185
HEad  -52.6933 -16.1969 9.91206
LeftShoulder1  -0.282784 -4.30433 13.7938
LeftArm  65.2505 -81.3029 -142.185
LeftForeArm  143.31 -78.0148 -128.75
LeftHand  -1.11804 0.717864 27.5173
RightShoulder  -0.0463526 -3.12355 -27.2949
RightArm  -133.555 73.0989 -70.7823
RightForeArm  4.34924 -6.06982 1.35882
RightHand  0.172066 -6.7275 -16.3341
LeftUpLeg  -49.0638 1.9502 -10.3773
LeftLeg  74.3426 6.46708 25.7736
LeftFoot  -26.9358 -0.769562 -6.80159
LeftToes  -1.1369e-010 2.7689e-011 -1.90827e-011
285
root  5.77394 31.9898 7.77261 -175.739 -25.61 -179.692
RightUpLeg  -55.7879 8.1216 -0.150441
RightLeg  65.8664 8.26141 18.8829
RightFoot  -11.2949 -0.081506 5.51014
RightToes  5.82063e-011 0 -3.6325e-017
Spine  51.7601 -2.47324 4.22599
Spine1  -12.0303 0.466835 -3.70175
HEad  -55.6386 -17.459 11.9026
LeftShoulder1  -0.328273 -3.72448 14.8917
LeftArm  69.9282 -80.3376 -145.781
LeftForeArm  143.811 -78.0784 -128.592
LeftHand  -1.13853 0.28137 25.6885
RightShoulder  -0.363748 -0.341484 -23.1246
RightArm  -119.251 80.2855 -52.092
RightForeArm  9.89627 -6.36603 2.88749
RightHand  0.250269 -7.30572 -16.2793
LeftUpLeg  -47.9524 1.1324 -8.8519
LeftLeg  72.2076 7.6942 26.1264
LeftFoot  -25.0798 -0.72104 -7.229
LeftToes  -1.1369e-010 2.7689e-011 -1.90827e-011
286
root  6.02232 33.1033 7.78241 -175.096 -26.0721 -178.951
RightUpLeg  -53.1023 7.3537 0.777996
RightLeg  59.6732 10.5576 18.3655
RightFoot  -9.1561 -0.220628 8.2478
RightToes  5.82063e-011 0 -3.6325e-017
Spine  50.4571 -2.12863 4.7129
Spine1  -8.96862 1.40986 -5.17265
HEad  -58.0984 -18.3347 12.7225
LeftShoulder1  -0.29784 -1.98577 15.8395
LeftArm  82.954 -80.1563 -158.636
LeftForeArm  144.238 -77.9773 -129.161
LeftHand  -1.08824 0.353519 24.9404
RightShoulder  -0.40651 0.936975 -20.2115
RightArm  -82.3279 83.8279 -13.3537
RightForeArm  12.121 -6.66315 4.61528
RightHand  0.332092 -8.02819 -15.4885
LeftUpLeg  -46.1848 -0.10797 -7.1832
LeftLeg  67.1312 10.2556 25.6438
LeftFoot  -22.182 -0.548752 -7.1646
LeftToes  -1.1369e-010 2.7689e-011 -1.90827e-011
287
root  6.29093 34.4762 7.73733 -173.473 -27.3085 -178.301
RightUpLeg  -50.1373 6.5177 1.52083
RightLeg  51.2063 12.8139 16.2182
RightFoot  -6.18682 -0.493334 10.0171
RightToes  5.82063e-011 0 -3.6325e-017
Spine  49.2655 -1.70475 4.49514
Spine1  -8.2806 1.8085 -4.83387
HEad  -57.5442 -18.1978 12.3687
LeftShoulder1  -0.21413 -0.518795 15.7493
LeftArm  90.3973 -80.3592 -166.017
LeftForeArm  144.677 -77.694 -130.506
LeftHand  -1.0586 0.50401 25.0007
RightShoulder  -0.276136 -0.756301 -21.3897
RightArm  -27.505 83.4763 48.2987
RightForeArm  14.9557 -6.61344 4.30765
RightHand  0.387447 -8.49169 -15.2967
LeftUpLeg  -44.3456 -1.86981 -5.4959
LeftLeg  60.052 13.6563 24.4651
LeftFoot  -18.3902 -0.296852 -6.58491
LeftToes  -1.1369e-010 2.7689e-011 -1.90827e-011
288
root  6.52727 35.8181 7.65309 -171.015 -29.0614 -178.168
RightUpLeg  -47.5097 5.74476 1.62049
RightLeg  41.6443 14.4092 13.1052
RightFoot  -2.4992 -0.853094 10.787
RightToes  5.82063e-011 0 -3.6325e-017
Spine  48.1651 -1.35058 3.73159
Spine1  -10.1936 1.66493 -3.87324
HEad  -53.8829 -17.8238 12.0612
LeftShoulder1  -0.224928 -0.616914 15.8953
LeftArm  89.2009 -81.489 -164.963
LeftForeArm  145.089 -77.3937 -131.846
LeftHand  -1.05287 0.606577 25.3847
RightShoulder  -0.187262 -1.7018 -21.9572
RightArm  -13.2639 81.5336 66.0001
RightForeArm  16.3122 -6.55706 3.97943
RightHand  0.406295 -8.64452 -15.2677
LeftUpLeg  -42.857 -3.92231 -4.2108
LeftLeg  52.1151 17.0391 22.4496
LeftFoot  -13.9524 -0.051486 -5.91713
LeftToes  -1.1369e-010 2.7689e-011 -1.90827e-011
